<svg width="21" height="20" viewBox="0 0 21 20" fill="none" xmlns="http://www.w3.org/2000/svg">
<path fill-rule="evenodd" clip-rule="evenodd" d="M10.5001 1.66667C15.1029 1.66667 18.8334 5.39716 18.8334 10C18.8334 14.1602 15.7865 17.6074 11.8022 18.2324V12.4089L13.7439 12.4089L13.7439 12.4089L14.1134 10H14.1133H11.8022V8.43751C11.8022 7.94313 11.9834 7.4579 12.5108 7.24618C12.6866 7.1756 12.9008 7.13542 13.1596 7.13542C13.1596 7.13542 13.1596 7.13542 13.1596 7.13542L14.211 7.13542L14.211 7.13542V5.08464C14.211 5.08464 14.211 5.08464 14.211 5.08464C14.211 5.08464 13.2572 4.92188 12.3458 4.92188C11.9171 4.92188 11.5218 4.98037 11.1667 5.09484C9.94462 5.48882 9.198 6.54597 9.198 8.16407V10H7.08211H7.0821V12.4089L7.08211 12.4089L9.198 12.4089V18.2324C5.21362 17.6074 2.16675 14.1602 2.16675 10C2.16675 5.39716 5.89723 1.66667 10.5001 1.66667Z" fill="#1877F2"/>
</svg>
